HIERARCHY
ROOT hip
{
  OFFSET 0.0 0.0 0.0
  CHANNELS 6 Xposition Yposition Zposition Zrotation Yrotation Xrotation
  JOINT torso
  {
    OFFSET 0.0 0.0 0.0
    CHANNELS 3 Zrotation Xrotation Yrotation
    JOINT neck
    {
      OFFSET -31.42098999999993 328.8025209999999 74.3554680000002
      CHANNELS 3 Zrotation Xrotation Yrotation
      JOINT head
      {
        OFFSET 3.3519900000001144 303.81732099999994 206.53942900000015
        CHANNELS 3 Zrotation Xrotation Yrotation
        End Site
        {
          OFFSET 0.0 0.0 0.0
        }
      }
    }
    JOINT left_collar
    {
      OFFSET -31.42098999999993 328.8025209999999 74.3554680000002
      CHANNELS 3 Zrotation Xrotation Yrotation
      JOINT left_upper_arm
      {
        OFFSET -124.490479 -8.162841999999841 8.226441000000023
        CHANNELS 3 Zrotation Xrotation Yrotation
        JOINT left_forearm
        {
          OFFSET -253.595764 -1.5758060000000569 105.0729980000001
          CHANNELS 3 Zrotation Xrotation Yrotation
          JOINT left_hand
          {
            OFFSET -269.48803699999996 0.1478270000000066 -55.346191999999974
            CHANNELS 3 Zrotation Xrotation Yrotation
            End Site
            {
              OFFSET 0.0 0.0 0.0
            }
          }
        }
      }
    }
    JOINT right_collar
    {
      OFFSET -31.42098999999993 328.8025209999999 74.3554680000002
      CHANNELS 3 Zrotation Xrotation Yrotation
      JOINT right_upper_arm
      {
        OFFSET 162.02484099999998 0.46441600000002836 2.2303470000001653
        CHANNELS 3 Zrotation Xrotation Yrotation
        JOINT right_forearm
        {
          OFFSET 240.01246700000004 -25.835875999999985 121.34179699999959
          CHANNELS 3 Zrotation Xrotation Yrotation
          JOINT right_hand
          {
            OFFSET 252.48539699999992 18.910399999999868 -67.53466800000001
            CHANNELS 3 Zrotation Xrotation Yrotation
            End Site
            {
              OFFSET 0.0 0.0 0.0
            }
          }
        }
      }
    }
  }
}
MOTION
Frames: 16
Frame Time: 0.01
-276.6245119999997 269.5464779999997 1548.502686 2.16481400488128 -3.809370337546067 8.67687813701366 3.1713499478369416 4.748546491601275 -0.13339033692382873 -0.7253912332082388 -4.533274117372091 0.5569398837421032 0.0 0.0 0.0 -1.810494686287483 0.5281784458521545 -12.89378322393346 55.55337114806903 17.281498350391406 12.786860888828716 28.691812754479017 -2.845993390868628 -12.139847389736671 0.0 0.0 0.0 -2.9733012249195445 -0.11102261921664525 -6.579171655446168 -51.26835348282646 16.966874259744927 -17.350510982353693 -44.92214233242169 -5.030968958487421 21.1169304518187 0.0 0.0 0.0
-276.6449579999997 269.5328369999997 1548.446045 2.20808073663035 -3.8456713802757148 8.643474014489826 3.1326741499382305 4.758949792252534 -0.12485751063587647 -0.7293003841696599 -4.464019216014805 0.5587276121099622 0.0 0.0 0.0 -1.895356628870569 0.5054766642885831 -12.746997268821653 55.65118423493638 17.369549812618335 12.694133466057995 28.670300310981922 -2.862088580228132 -12.068651193918738 0.0 0.0 0.0 -3.097518995799167 -0.11841851550194579 -6.660411667996923 -51.089134553493544 17.019489386398096 -17.14874853719288 -44.910109202383964 -5.028994844543699 21.11980561687324 0.0 0.0 0.0
-276.6614989999997 269.5135189999997 1548.401611 2.2643441024693667 -3.814171871488378 8.662925929660606 3.0821482897386354 4.759400762669548 -0.1153499905129368 -0.7129821045449227 -4.49188315828691 0.5476799316091837 0.0 0.0 0.0 -1.7984903249412303 0.5297877501238246 -12.88286427199956 55.569783829574185 17.324954981850208 12.720562630188532 28.58919650787346 -2.8602097825938246 -12.043153033720243 0.0 0.0 0.0 -3.189477700995543 -0.12129599152888781 -6.612180510900043 -50.98622525353143 16.993779866279542 -17.119224984176572 -44.84908356758101 -5.024042251613118 21.119273448088393 0.0 0.0 0.0
-276.64901699999973 269.4914249999997 1548.35144 2.255921086543861 -3.8588469196352047 8.670611102898782 3.1156494257195173 4.767645185865353 -0.12059250504086493 -0.7292358134225809 -4.403766506486679 0.5578542261621063 0.0 0.0 0.0 -1.8739955617251696 0.510959926378745 -12.779792508014154 55.60781284961736 17.396950144854863 12.61784591439187 28.58337304030731 -2.8751896450473877 -11.98238149895977 0.0 0.0 0.0 -3.1728174771354944 -0.12261617339819833 -6.694714153697925 -51.02165384461194 17.037370910794635 -17.075512582587123 -44.87748254678431 -5.03378812676529 21.09725935028904 0.0 0.0 0.0
-276.64590499999974 269.4744569999997 1548.331421 2.2554200376735234 -3.7953753222962416 8.617682437540077 3.093495313215701 4.746696748890224 -0.11904811218564978 -0.7223138196246239 -4.432293799384494 0.5533995725441044 0.0 0.0 0.0 -1.7351802493736697 0.5383439678445882 -12.827354607014714 55.62374789608513 17.32975600642872 12.746756296263776 28.354814057271202 -2.8251541696241853 -12.085174404433374 0.0 0.0 0.0 -3.221667359424146 -0.12137914103257552 -6.559497735280238 -50.94266274285655 17.003665962112155 -17.074453711871197 -44.858201287247944 -5.065366776229127 20.997875523028522 0.0 0.0 0.0
-276.66033899999974 269.4429319999997 1548.331787 2.2740681776525267 -3.814747216112784 8.601262079165823 3.0866248280094113 4.730232231644925 -0.11980311772381438 -0.7099789707234408 -4.353407935433746 0.5436846753520335 0.0 0.0 0.0 -1.8204870337216135 0.5163436098903148 -12.69685484596243 55.70174013848269 17.405799681802343 12.66270419510115 28.36316288172715 -2.836777847408815 -12.042878343339975 0.0 0.0 0.0 -3.185207306170134 -0.12184327168962454 -6.641605270499702 -50.975787869609775 17.055328760585272 -17.016650380312527 -44.94104530099699 -5.079883540914579 20.97562084906462 0.0 0.0 0.0
-276.6565249999997 269.4183649999997 1548.347046 2.233918559648183 -3.780807737252745 8.656430812815524 3.1293197250341582 4.724323984231024 -0.12853488278434946 -0.6836805693227879 -4.385737068997409 0.5257178485356098 0.0 0.0 0.0 -1.7285587284697554 0.5409382179267327 -12.85444299740096 55.4564974202533 17.37256632762196 12.563272202363047 28.558477745928958 -2.8960244003015347 -11.89091827431874 0.0 0.0 0.0 -3.073439282255984 -0.1154187556990716 -6.580002868990271 -51.127667748877684 17.01587478289368 -17.180293294510353 -44.95027447466962 -5.083653895373972 20.966721855176814 0.0 0.0 0.0
-276.65646399999974 269.3793639999997 1548.354492 2.1989603378411404 -3.7610744395019005 8.686351411764742 3.1795662490478143 4.6977410450054204 -0.14126609772972212 -0.6922401732145358 -4.359150400914853 0.5313482234581233 0.0 0.0 0.0 -1.7420660045316496 0.5391246982901455 -12.866465801893714 55.455583993967686 17.38456490061653 12.541434888995052 28.52805893799869 -2.900686276281682 -11.860180412434392 0.0 0.0 0.0 -3.2385373037258813 -0.12409050899751847 -6.637177907574969 -50.933324040435025 17.04695454523782 -17.000907329300222 -44.95500087769754 -5.069982142078477 21.008733904045407 0.0 0.0 0.0
-276.6661989999997 269.3479609999997 1548.390747 2.281098552331775 -3.748742810278794 8.673284483014148 3.0981431904552506 4.688011824461246 -0.12719757789234354 -0.6830227363062354 -4.34973309123244 0.5247695758263893 0.0 0.0 0.0 -1.7237196017321976 0.5437780627232678 -12.892413145114443 55.43270382527284 17.384939535112768 12.525961284458532 28.526545869271043 -2.9048409586500843 -11.843326216983282 0.0 0.0 0.0 -3.256523040967661 -0.12571473499606445 -6.66955072593451 -50.905893317201524 17.070969343534113 -16.945019953476592 -44.967424452369116 -5.067477760636167 21.01936352771088 0.0 0.0 0.0
-276.6450809999997 269.3130189999997 1548.416626 2.1782237967485076 -3.7600711235413655 8.671007979566212 3.1793620898106694 4.678611487104321 -0.14361371691389882 -0.6695049152819205 -4.277635545337092 0.5143363792368916 0.0 0.0 0.0 -1.5486896297376007 0.5709193311896811 -12.808726771637662 55.28121308586631 17.415572010154655 12.373245635339925 28.419112562227205 -2.889517325708516 -11.858826802203241 0.0 0.0 0.0 -3.147776603155535 -0.1207429764920666 -6.664155681543036 -51.03029109221145 17.112112364922734 -16.965482018846878 -44.99865452265615 -5.084135538101232 20.977630401739408 0.0 0.0 0.0
-276.6550899999997 269.25991799999974 1548.469482 2.2077326660187113 -3.73068700583538 8.727348619830662 3.1622793349297718 4.641887067666718 -0.1449803548706954 -0.6514650716075183 -4.271529667234004 0.5016354748571987 0.0 0.0 0.0 -1.5383656947678808 0.5761687304782507 -12.872151856666534 55.26188842022883 17.419172215313164 12.354258763460848 28.423494247193894 -2.8876749322403468 -11.867866693746612 0.0 0.0 0.0 -3.1613853716703226 -0.12292280153526908 -6.72772087009968 -51.031149825518 17.126877493241725 -16.94318222283624 -45.003258575157524 -5.079253233045056 20.99335508872372 0.0 0.0 0.0
-276.6455079999997 269.2267459999997 1548.547974 2.2399493008816327 -3.7043551205219725 8.74509624538013 3.1358777693642836 4.613525048043767 -0.14354041688621105 -0.641172634096846 -4.271389375049746 0.494434293935081 0.0 0.0 0.0 -1.5506435581629012 0.5758600928363515 -12.907865615061356 55.24720539557575 17.41620184629301 12.349963231287559 28.444915181132355 -2.8832212307542546 -11.894179804416506 0.0 0.0 0.0 -3.3709528820204073 -0.13449451048341654 -6.8081338350554965 -50.81436456515391 17.167969808857507 -16.73202343535479 -44.962907333516206 -5.064636840413206 21.026694034006955 0.0 0.0 0.0
-276.6770629999997 269.1865839999997 1548.622681 2.288117675896754 -3.731501441154146 8.813766903218957 3.1087291637514243 4.6281017194222605 -0.1366191558756059 -0.6247949826249873 -4.2629938408184 0.4828668941610916 0.0 0.0 0.0 -1.5436437904121256 0.5829733961919662 -13.017252674767082 55.178523956129055 17.39758514665786 12.338255513811202 28.58742055736631 -2.887310738686685 -11.936780278575426 0.0 0.0 0.0 -3.421394373961127 -0.1386997803871556 -6.878341653108317 -50.775547659910266 17.17352461612543 -16.696886001194112 -44.94932030962723 -5.051418640558115 21.06270575348563 0.0 0.0 0.0
-276.7065119999997 269.12023899999974 1548.692261 2.252073121640501 -3.692251076516049 8.711931343089315 3.135239105491703 4.635488309341257 -0.1406899215820143 -0.6830280107086748 -4.337261532956203 0.5246042527234169 0.0 0.0 0.0 -1.6906213560325285 0.5518427764695878 -12.932462861860424 55.32270407007849 17.38791747447882 12.449333652862693 28.672636848602465 -2.897214594034169 -11.933078268879923 0.0 0.0 0.0 -3.3018042679580177 -0.12979013858983443 -6.748783849781941 -50.856648960494965 17.14215474716738 -16.80096459180262 -45.04403914817789 -5.059547952454903 21.062382285918567 0.0 0.0 0.0
-276.70782499999973 269.0708309999997 1548.807739 2.2695781982000267 -3.712164111386351 8.791416697899313 3.120993726278785 4.614801799083392 -0.14057888124253554 -0.639123732083601 -4.277045405765747 0.4930767394650971 0.0 0.0 0.0 -1.5453548345439414 0.5813896883189127 -12.993442659117123 55.14143718210702 17.38680055392499 12.333234086276901 28.700916945996333 -2.8746343114605013 -12.032282255947282 0.0 0.0 0.0 -3.420409706254105 -0.1383177551352979 -6.8659037993852365 -50.76007655174562 17.18224677427516 -16.67274554228828 -44.996146123932064 -5.034419795839115 21.125205262527285 0.0 0.0 0.0
-276.6976619999997 268.9980469999997 1548.934692 2.2675201145125525 -3.6483656322344 8.785483995516442 3.1368377527710023 4.575114278812182 -0.14849583787414566 -0.6733841503916621 -4.335016685931155 0.5178254005002697 0.0 0.0 0.0 -1.7924067475529504 0.5396326057641189 -13.053649136990844 55.4105360156268 17.364562500860163 12.547715237860398 28.771165880848155 -2.868190010040915 -12.08558888236793 0.0 0.0 0.0 -3.3328041336261123 -0.13330211110190984 -6.829117048560422 -50.82506105418179 17.156651241751902 -16.756913478027638 -45.08976814538137 -5.031771026352051 21.15649152677374 0.0 0.0 0.0
